# xmcd
#
# Track frame offsets: 
#        182
#        9656
#        21827
#        32575
#        42757
#        53112
#        63134
#        74887
#        87242
#        100038
#        112106
#        121239
#        132912
#        147029
#        158806
#        171995
#        183539
#        196306
#        209871
#        223543
#
# Disc length: 3144 seconds
#
# Revision: 1
# Processed by: cddbd v1.5.2PL0 Copyright (c) Steve Scherf et al.
# Submitted via: ExactAudioCopy v1.0b6
#
DISCID=260c4614
DTITLE=Compilation - Le Boogie Woogie par les femmes [CD2)
DYEAR=2001
DGENRE=Boogie Woogie
TTITLE0=Camille Howard - X-Temporaneous Boogie
TTITLE1=Camille Howard - Scat Boogie
TTITLE2=Camille Howard - O Sole Mio Boogie
TTITLE3=Camille Howard - The Boogie And The Blues
TTITLE4=Camille Howard - Instantaneous Boogie
TTITLE5=Camille Howard - Within This Heart Of Mine
TTITLE6=Camille Howard - Boogie In 'G'
TTITLE7=Cleo Brown - Cleo's Boogie
TTITLE8=Viviane Greene - The Unfinished Boogie
TTITLE9=Mary DePina - Boogie Woogie Man
TTITLE10=Clara Lewis - Clara's Boogie
TTITLE11=Mabel Scott - Elevator Boogie
TTITLE12=Dorothy Donegan - Piano Boogie
TTITLE13=Nellie Lutcher - Lake Charles Boogie
TTITLE14=Hazel Scott - Brown Bee Boogie
TTITLE15=Marylin Scott - Let's Do The Boogie Woogie
TTITLE16=Mary Lou Williams - Boogie Misterioso
TTITLE17=Effie Smith - Effie's Boogie
TTITLE18=Christine Chatman - Naptown Boogie
TTITLE19=Helen Humes - Be Ba Ba Le Ba Boogie
EXTD=
EXTT0=
EXTT1=
EXTT2=
EXTT3=
EXTT4=
EXTT5=
EXTT6=
EXTT7=
EXTT8=
EXTT9=
EXTT10=
EXTT11=
EXTT12=
EXTT13=
EXTT14=
EXTT15=
EXTT16=
EXTT17=
EXTT18=
EXTT19=
PLAYORDER=
